<svg id="Layer_1" data-name="Layer 1" xmlns="http://www.w3.org/2000/svg" viewBox="0 0 202.92 59.4"><defs><style>.cls-1{fill:#ebf5f3;}.cls-2{fill:#8aa29e;}.cls-3{fill:#6a8d92;}</style></defs><circle class="cls-1" cx="96.38" cy="29.7" r="29.7"/><circle class="cls-2" cx="47.97" cy="29.7" r="29.7"/><path class="cls-3" d="M50.79,35.76H48V31.81h2.76V30.16c0-2.71.7-4.68,2.11-5.89s3.66-1.82,6.75-1.82v4a4.54,4.54,0,0,0-3.12.83,3.84,3.84,0,0,0-.87,2.86v1.65H60v3.95H55.66V55.17H50.79Z" transform="translate(-48.03 -10.8)"/><path class="cls-1" d="M110.85,40.36a14.82,14.82,0,0,1-1.18,6A14.44,14.44,0,0,1,106.42,51a14.61,14.61,0,0,1-4.81,3.07,16.32,16.32,0,0,1-11.78,0A15,15,0,0,1,85,51a14.17,14.17,0,0,1-3.26-4.69,15.65,15.65,0,0,1,0-12A14,14,0,0,1,85,29.69a15.24,15.24,0,0,1,4.84-3.05,16.43,16.43,0,0,1,11.82,0,14.58,14.58,0,0,1,4.79,3.05,14.33,14.33,0,0,1,3.23,4.69A14.91,14.91,0,0,1,110.85,40.36Zm-24.2,0a11.33,11.33,0,0,0,.65,3.93,8.52,8.52,0,0,0,1.87,3A8.31,8.31,0,0,0,92,49.24a10.3,10.3,0,0,0,7.36,0,8.12,8.12,0,0,0,2.86-1.93,8.75,8.75,0,0,0,1.84-3,12.06,12.06,0,0,0,0-7.87,8.66,8.66,0,0,0-1.84-3,8,8,0,0,0-2.86-1.88,10.59,10.59,0,0,0-7.36,0,8.19,8.19,0,0,0-2.86,1.88,8.44,8.44,0,0,0-1.87,3A11.43,11.43,0,0,0,86.65,40.36Z" transform="translate(-48.03 -10.8)"/><path class="cls-2" d="M141.37,42V55.17h-5.93V25.58h5.93V38.85l10.77-13.27h7.16L147.1,40.25l12.54,14.92h-7.5Z" transform="translate(-48.03 -10.8)"/><path class="cls-3" d="M205.13,55.17H200.3v-3a7.67,7.67,0,0,1-3,2.22,9.81,9.81,0,0,1-3.92.79,11.47,11.47,0,0,1-3.8-.62,8.43,8.43,0,0,1-3.05-1.87,8.54,8.54,0,0,1-2-3.07,11.27,11.27,0,0,1-.75-4.27V31.81h4.79V44.63a6.52,6.52,0,0,0,1.59,4.78A5.73,5.73,0,0,0,194.4,51a5.83,5.83,0,0,0,4.29-1.61,6.48,6.48,0,0,0,1.61-4.78V31.81h4.83Z" transform="translate(-48.03 -10.8)"/><path class="cls-3" d="M251,48.54a5.87,5.87,0,0,1-.61,2.66,6.08,6.08,0,0,1-1.78,2.11,9.06,9.06,0,0,1-2.82,1.39,12.65,12.65,0,0,1-3.73.51,12.33,12.33,0,0,1-3.86-.56,9.65,9.65,0,0,1-3-1.56,7.57,7.57,0,0,1-2-2.34,6.74,6.74,0,0,1-.82-2.93h5a3.27,3.27,0,0,0,1.38,2.35,5.18,5.18,0,0,0,3.28,1,5.6,5.6,0,0,0,3.2-.75,2.32,2.32,0,0,0,1.09-2,1.94,1.94,0,0,0-1-1.72,9.91,9.91,0,0,0-2.52-1c-1-.29-2.11-.58-3.27-.86a16.41,16.41,0,0,1-3.26-1.19,7.4,7.4,0,0,1-2.53-2,5.21,5.21,0,0,1-1-3.34,5.26,5.26,0,0,1,.64-2.54,6.17,6.17,0,0,1,1.8-2.06,8.86,8.86,0,0,1,2.82-1.4,12.6,12.6,0,0,1,3.73-.51,9.84,9.84,0,0,1,6.4,2,7.19,7.19,0,0,1,2.63,5.4h-4.84a3.29,3.29,0,0,0-1.25-2.38,4.84,4.84,0,0,0-3.11-.91,5.1,5.1,0,0,0-3,.7,2.16,2.16,0,0,0-1,1.84,2,2,0,0,0,1,1.76A10.13,10.13,0,0,0,241,41.21c1,.3,2.05.6,3.2.9a16.89,16.89,0,0,1,3.2,1.18,7.7,7.7,0,0,1,2.5,2A5.35,5.35,0,0,1,251,48.54Z" transform="translate(-48.03 -10.8)"/></svg>