<?xml version="1.0" encoding="utf-8"?>
<!-- Generator: Adobe Illustrator 24.3.0, SVG Export Plug-In . SVG Version: 6.00 Build 0)  -->
<svg version="1.1" id="Layer_1" xmlns="http://www.w3.org/2000/svg" xmlns:xlink="http://www.w3.org/1999/xlink" x="0px" y="0px"
	 viewBox="0 0 300 81" style="enable-background:new 0 0 300 81;" xml:space="preserve">
<style type="text/css">
	.st0{fill:#6A8D92;}
	.st1{fill:#AFC6B6;}
	.st2{fill:#B2B7B6;}
</style>
<g>
	<path class="st0" d="M25.31,30.78l-7.66,0.93v27.24h-4.73V4.47h14.11v5.14h-9.38v16.97l7.66-1.01V30.78z"/>
	<path class="st1" d="M89.66,6.45c1.22,1.32,1.83,2.95,1.83,4.86V52.1c0,1.92-0.61,3.54-1.83,4.86s-2.71,1.98-4.48,1.98h-3.87
		c-1.77,0-3.26-0.66-4.48-1.98c-1.22-1.32-1.83-2.94-1.83-4.86V11.32c0-1.92,0.61-3.54,1.83-4.86c1.22-1.32,2.71-1.98,4.48-1.98
		h3.87C86.95,4.47,88.44,5.13,89.66,6.45z M86.76,11.32c0-0.47-0.16-0.87-0.47-1.21c-0.31-0.34-0.68-0.51-1.11-0.51h-3.87
		c-0.43,0-0.8,0.17-1.11,0.51c-0.31,0.34-0.47,0.74-0.47,1.21V52.1c0,0.47,0.15,0.87,0.47,1.21c0.31,0.34,0.68,0.51,1.11,0.51h3.87
		c0.43,0,0.8-0.17,1.11-0.51c0.31-0.34,0.47-0.74,0.47-1.21V11.32z"/>
	<path class="st0" d="M154.08,31.28c-0.38,0.81-0.88,1.49-1.5,2.06l4.15,25.6h-4.8l-3.87-23.89l-3.15,0.31v23.58h-4.73V4.47h4.73
		v25.76l3.72-0.47c0.86-0.1,1.34-0.62,1.43-1.56l1.86-23.74h4.73l-1.86,24.2C154.7,29.61,154.46,30.48,154.08,31.28z"/>
	<path class="st1" d="M217.18,4.47h4.73V52.1c0,1.92-0.61,3.54-1.83,4.86s-2.71,1.98-4.48,1.98h-3.87c-1.77,0-3.26-0.66-4.48-1.98
		s-1.83-2.94-1.83-4.86V4.47h4.73V52.1c0,0.47,0.15,0.87,0.47,1.21c0.31,0.34,0.68,0.51,1.11,0.51h3.87c0.43,0,0.8-0.17,1.11-0.51
		c0.31-0.34,0.47-0.74,0.47-1.21V4.47z"/>
	<path class="st0" d="M285.25,6.45c1.22,1.32,1.83,2.95,1.83,4.86v5.14h-4.73v-5.14c0-0.47-0.16-0.87-0.47-1.21
		c-0.31-0.34-0.68-0.51-1.11-0.51h-3.87c-0.43,0-0.8,0.17-1.11,0.51c-0.31,0.34-0.47,0.74-0.47,1.21v11.67
		c0,0.73,0.29,1.22,0.86,1.48l7.31,3.74c1.1,0.57,1.97,1.41,2.61,2.53c0.64,1.12,0.97,2.35,0.97,3.7V52.1
		c0,1.92-0.61,3.54-1.83,4.86s-2.71,1.98-4.48,1.98h-3.87c-1.77,0-3.26-0.66-4.48-1.98s-1.83-2.94-1.83-4.86v-5.14h4.73v5.14
		c0,0.47,0.15,0.87,0.47,1.21c0.31,0.34,0.68,0.51,1.11,0.51h3.87c0.43,0,0.8-0.17,1.11-0.51c0.31-0.34,0.47-0.74,0.47-1.21V34.43
		c0-0.67-0.29-1.19-0.86-1.56l-7.31-3.74c-1.1-0.57-1.97-1.41-2.61-2.53c-0.64-1.12-0.97-2.32-0.97-3.62V11.32
		c0-1.92,0.61-3.54,1.83-4.86c1.22-1.32,2.71-1.98,4.48-1.98h3.87C282.54,4.47,284.04,5.13,285.25,6.45z"/>
</g>
<g>
	<path class="st2" d="M268.21,68.76l-3.32,9.83h-2.2l-3.32-9.83h1.94l2.49,7.82l2.48-7.82H268.21z"/>
	<path class="st2" d="M269.66,76.37c0.83-0.75,1.49-1.38,1.98-1.88c0.49-0.5,0.9-1.03,1.23-1.57c0.33-0.54,0.49-1.08,0.49-1.61
		c0-0.48-0.1-0.85-0.31-1.13c-0.21-0.27-0.53-0.41-0.96-0.41s-0.76,0.16-1,0.47c-0.23,0.31-0.35,0.74-0.36,1.29h-1.76
		c0.03-1.13,0.34-1.98,0.93-2.56c0.58-0.58,1.32-0.87,2.22-0.87c0.99,0,1.74,0.28,2.27,0.85s0.79,1.32,0.79,2.25
		c0,0.73-0.18,1.43-0.54,2.1c-0.36,0.67-0.78,1.25-1.24,1.74s-1.08,1.09-1.83,1.78h3.82v1.63h-6.41v-1.47L269.66,76.37z"/>
	<path class="st2" d="M276.73,78.36c-0.21-0.22-0.32-0.5-0.32-0.82s0.11-0.6,0.32-0.82s0.48-0.33,0.81-0.33
		c0.32,0,0.58,0.11,0.79,0.33c0.21,0.22,0.31,0.5,0.31,0.82s-0.1,0.6-0.31,0.82c-0.21,0.22-0.47,0.33-0.79,0.33
		C277.21,78.69,276.94,78.58,276.73,78.36z"/>
	<path class="st2" d="M280.71,69.51c0.54-0.92,1.44-1.38,2.69-1.38c1.25,0,2.15,0.46,2.69,1.38c0.54,0.92,0.81,2.19,0.81,3.82
		c0,1.63-0.27,2.92-0.81,3.85c-0.54,0.93-1.44,1.39-2.69,1.39c-1.25,0-2.15-0.46-2.69-1.39c-0.54-0.93-0.81-2.21-0.81-3.85
		C279.9,71.7,280.17,70.43,280.71,69.51z M284.99,71.57c-0.08-0.47-0.25-0.86-0.49-1.16c-0.25-0.3-0.61-0.45-1.09-0.45
		c-0.48,0-0.85,0.15-1.1,0.45c-0.25,0.3-0.41,0.69-0.49,1.16s-0.12,1.06-0.12,1.75c0,0.71,0.04,1.31,0.12,1.8
		c0.08,0.48,0.24,0.87,0.49,1.17s0.62,0.44,1.1,0.44c0.48,0,0.85-0.15,1.1-0.44s0.42-0.69,0.49-1.17c0.08-0.48,0.12-1.08,0.12-1.8
		C285.12,72.63,285.07,72.05,284.99,71.57z"/>
</g>
<g>
	<path class="st0" d="M54.89,55.09l13.53-2.18c0.85-0.14,1.03-1.37,0.27-1.79l-4.35-2.39l33.52-24.19l5.76,1.22l3.01-2.18
		l-5.61-1.33l1.12-0.81l5.76,1.22l3.01-2.18l-7.16-1.7l1.34-7.83l-3.01,2.18l-1.2,6.25l-1.12,0.81l1.05-6.13l-3.01,2.18l-1.2,6.25
		L63.07,46.65l-0.34-5.29c-0.06-0.93-1.18-1.22-1.63-0.43l-7.1,12.71C53.62,54.34,54.15,55.2,54.89,55.09z"/>
</g>
<g>
</g>
<g>
</g>
<g>
</g>
<g>
</g>
<g>
</g>
<g>
</g>
</svg>
