<svg xmlns="http://www.w3.org/2000/svg" viewBox="0 0 425.45 400.93"><defs><style>.cls-1{fill:#ebf5f3;}.cls-2{fill:#fff;}.cls-3{fill:#80b192;}.cls-4{fill:#a3d0d8;}.cls-5{fill:#709da0;}.cls-6{fill:#82b7bc;}.cls-7{fill:#6a8d92;}.cls-8{fill:#a9c0c9;}.cls-9{fill:#6b7d7e;}.cls-10{fill:#8ca8af;}.cls-11{fill:#afc6b6;}</style></defs><g id="OBJECTS"><path class="cls-1" d="M265.64,50.36c-21.13-.2-149.06-2.17-152.82,33.48-3.6,34.14,46,21.64,46.45,36.79.51,15.92-8.94,20.52-35.32,19.52-11.44-.44-47.53,3.6-48.1,26.38s39.72,19.79,37.73,38.59c-1.16,21.36-31.77,26-43.82,31.66-13.1,6.85-37.21,18.15-31.67,42.4,7.29,28.12,53.58,23.06,71,26.53,11.65,1.89,48.68,5.15,43.41,30.07-2.76,15-33.16,15.85-27.35,35.07,5.88,18,58.89,21.51,69.63,22.09,44.58,2.41,142.46,6.36,186.06-12,16-6.7,30.17-14.76,28.53-38.79-.79-21.47-12.37-24.61,7.13-41.2,12.33-10.68,35.93-9.82,34.53-41-.75-16.81-43.76-23.79-42.8-41.38,1.49-27.65,54.28-4.17,54.48-53.07.11-30.53-95.92-13.45-94.94-43.64-1.3-12.26,19.84-17.46,18.93-31C387.22,69.1,362.34,53,265.64,50.36Z" transform="translate(-37.27 -34.28)"/><path class="cls-1" d="M181.83,271.78a.74.74,0,0,1-.38.1H107.92a.76.76,0,0,1-.73-.55c-.8-3.5,3.24-6.25,6-4.9a3.65,3.65,0,0,1,4-2.78,6.45,6.45,0,0,1,3.74-8,6.21,6.21,0,0,1,7.78,2.08c1.06-5.41,5.73-10.09,11.41-10.48a12.42,12.42,0,0,1,8.77,2.69c2.4,2,3.18,4.22,3.78,6.92a6.88,6.88,0,0,1,8.05-2.76c3.3,1,3.72,4.4,3.56,7.43,2.66-2.21,5.86-3.28,9.33-1.2,2.89,1.74,3.51,4.52,3.63,7.55,2.37-1.41,4.82,0,5,3.23A.63.63,0,0,1,181.83,271.78Z" transform="translate(-37.27 -34.28)"/><path class="cls-1" d="M386.94,119.4c0,14.09,38.24,16.69,40.23,0S386.94,98.23,386.94,119.4Z" transform="translate(-37.27 -34.28)"/><path class="cls-1" d="M78.21,336.19c0,14.1,47.32,16.82,49,0C129.36,315.45,78.21,311.51,78.21,336.19Z" transform="translate(-37.27 -34.28)"/><path class="cls-1" d="M354,415.7c0,16.72,56.12,19.95,58.15,0C414.67,391.11,354,386.43,354,415.7Z" transform="translate(-37.27 -34.28)"/><path class="cls-1" d="M74.21,120.39c0,9.2,26.08,11,27,0C102.4,106.85,74.21,104.28,74.21,120.39Z" transform="translate(-37.27 -34.28)"/><path class="cls-2" d="M223.68,284.29c.78-3.92-5-7.51-9.47-6.07.73-2.69-.1-5.12-4.06-6.32a10,10,0,0,0-5.36,0c3.12-6.21.21-13.29-9.43-14.76-10.48-1.59-22.11,3.55-24.19,11.83-8.52-8.37-26.58,1.66-21.25,11.3-3.29-.53-6.69,1.34-6.89,4.11a3.35,3.35,0,0,0-3.9,5.19.94.94,0,0,0,.76.35h89a1,1,0,0,0,.54-.14.71.71,0,0,0,.31-.37C230.72,286.49,227,283.75,223.68,284.29Z" transform="translate(-37.27 -34.28)"/><path class="cls-2" d="M224.6,350.64c.35-1.73-2.21-3.32-4.19-2.68.33-1.19,0-2.27-1.79-2.8a4.43,4.43,0,0,0-2.37,0c1.38-2.75.09-5.88-4.17-6.53-4.64-.7-9.78,1.58-10.7,5.24-3.77-3.71-11.75.73-9.4,5-1.45-.23-3,.59-3,1.82a1.48,1.48,0,0,0-1.73,2.29.41.41,0,0,0,.34.16h39.34a.57.57,0,0,0,.24-.06.28.28,0,0,0,.13-.17C227.71,351.62,226.06,350.4,224.6,350.64Z" transform="translate(-37.27 -34.28)"/><path class="cls-2" d="M383.4,190.25a.62.62,0,0,0,.29.07h54.69a.55.55,0,0,0,.54-.41,3.3,3.3,0,0,0-4.44-3.64,2.69,2.69,0,0,0-3-2.07,4.79,4.79,0,0,0-2.78-5.93,4.61,4.61,0,0,0-5.79,1.54,9.67,9.67,0,0,0-8.49-7.79,9.25,9.25,0,0,0-6.52,2,8.35,8.35,0,0,0-2.82,5.16,5.11,5.11,0,0,0-6-2.06c-2.46.76-2.77,3.27-2.65,5.52-2-1.64-4.36-2.44-6.94-.88-2.15,1.29-2.61,3.36-2.7,5.61-1.76-1.05-3.58,0-3.73,2.4A.48.48,0,0,0,383.4,190.25Z" transform="translate(-37.27 -34.28)"/><path class="cls-2" d="M240.83,92a.41.41,0,0,0,.19,0h37a.36.36,0,0,0,.36-.28,2.23,2.23,0,0,0-3-2.46,1.83,1.83,0,0,0-2-1.4,3.23,3.23,0,0,0-1.88-4,3.12,3.12,0,0,0-3.91,1,6.54,6.54,0,0,0-5.74-5.27,6.23,6.23,0,0,0-4.41,1.35,5.7,5.7,0,0,0-1.9,3.48,3.46,3.46,0,0,0-4-1.39c-1.66.52-1.87,2.21-1.79,3.74a3.82,3.82,0,0,0-4.7-.6c-1.45.87-1.76,2.27-1.82,3.79-1.19-.71-2.42,0-2.51,1.62A.32.32,0,0,0,240.83,92Z" transform="translate(-37.27 -34.28)"/><path class="cls-3" d="M328.4,412.74a.64.64,0,0,0-.12-.35.62.62,0,0,0-.6-.37l-27.92.45a.72.72,0,0,0-.72.72c.22,5.38-.23,10.93.66,16.26.83,5,6.27,5.35,10.48,5.59,5.4.31,13.11.5,16.21-2.35C330,429.38,328.58,418,328.4,412.74Z" transform="translate(-37.27 -34.28)"/><path class="cls-4" d="M303.89,423.25a5.36,5.36,0,0,1-5.2-4,.43.43,0,0,1,.33-.51.43.43,0,0,1,.51.32c0,.16,1,4.07,5.6,3.23,3.05-.55,3.28-6.93,3.28-7a.43.43,0,0,1,.85-.1c.08.27.16.63.25,1.05.36,1.55.89,3.88,2,4.86,1.39,1.22,4.61,1.37,6.26.64s2.55-3.08,2.48-5.26c0-.32-.07-.64-.08-1a.43.43,0,0,1,.85-.08,7.61,7.61,0,0,1,.09,1c.36,2.34,1.74,4.3,3.48,4.82,1.39.42,2.73-.17,3.79-1.66a.43.43,0,1,1,.7.5c-1.27,1.78-3,2.51-4.74,2a5.77,5.77,0,0,1-3.45-3.32,5.12,5.12,0,0,1-2.79,3.82c-1.91.85-5.47.7-7.16-.78a8.24,8.24,0,0,1-2-4c-.4,2.14-1.37,5-3.7,5.39A7.93,7.93,0,0,1,303.89,423.25Z" transform="translate(-37.27 -34.28)"/><path class="cls-5" d="M313.08,410.14c-3,0-13,.13-14.11,2.39-1.47,3.19,14.87,2.94,18,2.83C332,414.87,333.74,409.39,313.08,410.14Z" transform="translate(-37.27 -34.28)"/><path class="cls-4" d="M313.08,409.56c-1.71,0-16.05-.24-14.75,3.64.64,1.89,3.68,2.06,5.29,2.29a75.66,75.66,0,0,0,10.75.49,54.53,54.53,0,0,0,9.46-.74c1.39-.25,4.42-.73,5.05-2.35,1.59-4.2-14.67-3.36-15.8-3.33-.74,0-.75,1.17,0,1.15a77.89,77.89,0,0,1,9.78.21c.57.05,6.26.81,4.39,2-3.44,2.25-8.93,1.85-12.88,1.89-4.4,0-9.1.12-13.38-1-2.06-.55-.66-1.75.71-2.14a23.93,23.93,0,0,1,4.46-.69c2.29-.22,4.61-.27,6.92-.27A.58.58,0,0,0,313.08,409.56Z" transform="translate(-37.27 -34.28)"/><path class="cls-6" d="M328.6,378.46c-.19,11.31-.6,22.62-.75,33.93a.43.43,0,0,0,.86,0c.16-11.31.56-22.62.75-33.93a.43.43,0,0,0-.86,0Z" transform="translate(-37.27 -34.28)"/><path class="cls-6" d="M296.84,378.27c.35,11.45.5,22.86,1.7,34.26.06.55.92.55.86,0-1.2-11.4-1.35-22.81-1.7-34.26,0-.55-.88-.56-.86,0Z" transform="translate(-37.27 -34.28)"/><path class="cls-6" d="M312.34,380.18c1,11.55-.25,23.13.76,34.66,0,.55.91.56.86,0-1-11.53.2-23.11-.76-34.66-.05-.54-.91-.55-.86,0Z" transform="translate(-37.27 -34.28)"/><path class="cls-7" d="M372.89,280c-3.61-9.15-10.26-18.26-20.67-20.14l-.23,0a.9.9,0,0,0-.16,0c-7.78-.79-12.3,6.95-15,12.89-4.93,10.72-7.09,22.72-9,34.25-3.79,22.67-7.72,47.51-1.07,70a1.51,1.51,0,0,0,2.71.34c7.11-10.92,21.78-14.67,31.15-23.39,9.8-9.11,14.78-22.43,16.38-35.31C378.56,305.38,377.79,292.38,372.89,280Z" transform="translate(-37.27 -34.28)"/><path class="cls-3" d="M295.5,316.62c-3.45-18.65-11.59-37.29-21-53.82a1.32,1.32,0,0,0-1.36-.7,1.52,1.52,0,0,0-.66.18c-9.45,4.86-14.53,14.17-17.72,23.79-3.41,10.31-5.2,22.89-3.61,33.7,2,14,10,26.32,20.35,35.88,8.53,7.83,19.14,12.91,26.75,21.87a1.49,1.49,0,0,0,2.52-1C300.58,356.52,299.14,336.28,295.5,316.62Z" transform="translate(-37.27 -34.28)"/><path class="cls-3" d="M340.46,249c-8.35-4.56-18.11-5.33-27.34-3.51a1.25,1.25,0,0,0-1,.86c-5.58,8-6.4,19.09-7.22,28.4-1.29,14.64-.94,29.43-.29,44.09.88,19.77,2.54,39.57,5.06,59.2a1.5,1.5,0,0,0,1.48,1.45h17a1.49,1.49,0,0,0,1.28-.72c15.68-28.8,20.07-63.44,22.69-95.55.6-7.32,1.08-14.67,1.21-22C353.39,256.36,344,250.93,340.46,249Z" transform="translate(-37.27 -34.28)"/><path class="cls-7" d="M316.93,251.17c-2.66-15.32-29.72-3.09-36.88,2.15-6.62,4.84-8.42,9.42-8.84,16.82a200.47,200.47,0,0,0,1.52,37A179.73,179.73,0,0,0,286,356.24q3.12,7.11,6.86,13.94c1.13,2.06,3.62,8.6,6.06,9.26,3.59,1,8.52.05,12.24.05a1.36,1.36,0,0,0,1.36-1,1.47,1.47,0,0,0,.12-.48c2.34-28,4.19-56,5.15-84C318.25,280,319.35,265.13,316.93,251.17Z" transform="translate(-37.27 -34.28)"/><path class="cls-6" d="M296.46,380.13a95,95,0,0,0,33.47,0c3.14-.54,1.81-4.73-1.31-4.19a88.31,88.31,0,0,1-30.85,0c-3.11-.58-4.44,3.62-1.31,4.19Z" transform="translate(-37.27 -34.28)"/><path class="cls-3" d="M195.32,107.5a.25.25,0,0,0,0-.15.27.27,0,0,0-.26-.16l-12.1.2a.31.31,0,0,0-.31.31,57,57,0,0,0,.29,7c.36,2.15,2.72,2.32,4.54,2.42,2.34.14,5.68.22,7-1C196,114.71,195.4,109.79,195.32,107.5Z" transform="translate(-37.27 -34.28)"/><path class="cls-8" d="M184.71,112.06a2.35,2.35,0,0,1-2.26-1.75.18.18,0,0,1,.14-.22.19.19,0,0,1,.23.14,2,2,0,0,0,2.42,1.4c1.32-.24,1.42-3,1.43-3a.18.18,0,0,1,.16-.18.18.18,0,0,1,.2.13c0,.12.07.28.11.46a4.45,4.45,0,0,0,.87,2.11,3.08,3.08,0,0,0,2.71.27,2.32,2.32,0,0,0,1.08-2.28c0-.13,0-.27,0-.42a.19.19,0,0,1,.17-.19.19.19,0,0,1,.2.16,2.72,2.72,0,0,1,0,.42,2.48,2.48,0,0,0,1.51,2.08,1.46,1.46,0,0,0,1.64-.72.19.19,0,0,1,.3.22,1.83,1.83,0,0,1-2.05.86,2.51,2.51,0,0,1-1.49-1.44,2.22,2.22,0,0,1-1.21,1.65,3.41,3.41,0,0,1-3.11-.33,3.6,3.6,0,0,1-.84-1.74c-.18.93-.6,2.16-1.61,2.34A3.38,3.38,0,0,1,184.71,112.06Z" transform="translate(-37.27 -34.28)"/><path class="cls-9" d="M188.69,106.37c-1.29,0-5.64.06-6.12,1-.63,1.38,6.45,1.27,7.81,1.23C196.86,108.42,197.64,106.05,188.69,106.37Z" transform="translate(-37.27 -34.28)"/><path class="cls-8" d="M188.69,106.13c-.75,0-7-.11-6.39,1.57.28.82,1.59.89,2.29,1a32.91,32.91,0,0,0,4.65.22,24.38,24.38,0,0,0,4.1-.32c.61-.11,1.92-.32,2.19-1,.69-1.82-6.35-1.46-6.84-1.44a.25.25,0,0,0,0,.49,35.14,35.14,0,0,1,4.23.09c.25,0,2.71.36,1.91.88-1.49,1-3.88.8-5.59.82a22,22,0,0,1-5.79-.44c-.89-.24-.29-.76.31-.93a10.48,10.48,0,0,1,1.93-.3,30,30,0,0,1,3-.12A.25.25,0,0,0,188.69,106.13Z" transform="translate(-37.27 -34.28)"/><path class="cls-10" d="M195.41,92.65c-.08,4.9-.26,9.8-.32,14.7,0,.24.37.24.37,0,.07-4.9.24-9.8.32-14.7,0-.24-.37-.24-.37,0Z" transform="translate(-37.27 -34.28)"/><path class="cls-10" d="M181.65,92.57c.15,5,.22,9.9.74,14.84,0,.24.39.24.37,0-.52-4.94-.58-9.88-.74-14.84,0-.24-.38-.24-.37,0Z" transform="translate(-37.27 -34.28)"/><path class="cls-10" d="M188.37,93.4c.41,5-.11,10,.33,15,0,.24.39.24.37,0-.44-5,.09-10-.33-15,0-.24-.39-.24-.37,0Z" transform="translate(-37.27 -34.28)"/><path class="cls-7" d="M214.6,50c-1.57-4-4.45-7.91-9-8.72h-.09l-.08,0c-3.36-.34-5.32,3-6.51,5.59-2.13,4.64-3.07,9.84-3.91,14.84-1.64,9.82-3.34,20.58-.46,30.32a.65.65,0,0,0,1.17.14c3.08-4.73,9.44-6.35,13.5-10.13,4.24-4,6.4-9.72,7.09-15.3A33.71,33.71,0,0,0,214.6,50Z" transform="translate(-37.27 -34.28)"/><path class="cls-3" d="M181.07,65.86c-1.49-8.08-5-16.16-9.1-23.32a.56.56,0,0,0-.59-.3.6.6,0,0,0-.28.08c-4.1,2.1-6.3,6.14-7.68,10.3a33.37,33.37,0,0,0-1.56,14.6c.88,6.06,4.31,11.41,8.82,15.55,3.69,3.39,8.28,5.59,11.58,9.47a.65.65,0,0,0,1.1-.44A151.41,151.41,0,0,0,181.07,65.86Z" transform="translate(-37.27 -34.28)"/><path class="cls-3" d="M200.55,36.56a17.6,17.6,0,0,0-11.85-1.51.53.53,0,0,0-.44.37c-2.41,3.45-2.77,8.27-3.12,12.3a143.22,143.22,0,0,0-.12,19.1c.37,8.57,1.09,17.14,2.19,25.65a.64.64,0,0,0,.64.63h7.36a.66.66,0,0,0,.55-.31c6.79-12.48,8.7-27.49,9.83-41.4.26-3.17.47-6.36.52-9.54C206.15,39.75,202.08,37.4,200.55,36.56Z" transform="translate(-37.27 -34.28)"/><path class="cls-7" d="M190.36,37.51c-1.16-6.64-12.88-1.35-16,.92-2.87,2.1-3.65,4.09-3.83,7.29a86.67,86.67,0,0,0,.66,16A77.58,77.58,0,0,0,177,83q1.35,3.09,3,6c.48.89,1.57,3.73,2.62,4,1.56.42,3.69,0,5.31,0a.59.59,0,0,0,.59-.43,1.17,1.17,0,0,0,.05-.2c1-12.11,1.81-24.25,2.23-36.39C190.93,50,191.4,43.55,190.36,37.51Z" transform="translate(-37.27 -34.28)"/><path class="cls-10" d="M181.48,93.38a41.6,41.6,0,0,0,14.51,0c1.36-.24.78-2.06-.57-1.82a38.43,38.43,0,0,1-13.36,0c-1.35-.25-1.93,1.57-.58,1.82Z" transform="translate(-37.27 -34.28)"/><path class="cls-11" d="M170.65,196a4.54,4.54,0,0,1-.26,1.49,3.53,3.53,0,0,1-.85,1.3,4.15,4.15,0,0,1-1.49.92,6.19,6.19,0,0,1-2.18.35h-2.23v5.09H161V191.84h4.89a6.61,6.61,0,0,1,2.09.31,4.3,4.3,0,0,1,1.49.88,3.58,3.58,0,0,1,.9,1.31A4.31,4.31,0,0,1,170.65,196Zm-4.9,1.91a2.26,2.26,0,0,0,1.65-.51,1.86,1.86,0,0,0,.52-1.4,1.9,1.9,0,0,0-.52-1.43,2.26,2.26,0,0,0-1.65-.51h-2.11v3.85Z" transform="translate(-37.27 -34.28)"/><path class="cls-11" d="M182.19,202.58H176.9L176,205.1h-2.79L178,191.84h3.09l4.77,13.26h-2.81Zm-2.65-7.68-1.91,5.55h3.83Z" transform="translate(-37.27 -34.28)"/><path class="cls-11" d="M196.06,191.82a7.93,7.93,0,0,1,2.09.27,6.11,6.11,0,0,1,1.78.79,5.41,5.41,0,0,1,1.39,1.27,5.66,5.66,0,0,1,.91,1.72h-3.06a3,3,0,0,0-1.25-1.2,4.18,4.18,0,0,0-1.86-.4,4.35,4.35,0,0,0-1.64.3,3.59,3.59,0,0,0-1.27.85,3.85,3.85,0,0,0-.83,1.33,5.34,5.34,0,0,0,0,3.5,3.89,3.89,0,0,0,.85,1.33,3.5,3.5,0,0,0,1.3.85,4.58,4.58,0,0,0,1.69.3,3.69,3.69,0,0,0,2.5-.82,3.87,3.87,0,0,0,1.26-2.24h-4.56v-2h7.18V200a6.43,6.43,0,0,1-.74,2,6.19,6.19,0,0,1-1.36,1.66,6.77,6.77,0,0,1-1.94,1.13,6.6,6.6,0,0,1-2.43.43,7.39,7.39,0,0,1-2.69-.48,6.53,6.53,0,0,1-2.16-1.37,6.28,6.28,0,0,1-1.42-2.11,7.17,7.17,0,0,1,0-5.36,6.09,6.09,0,0,1,1.42-2.11,6.48,6.48,0,0,1,2.15-1.37A7.1,7.1,0,0,1,196.06,191.82Z" transform="translate(-37.27 -34.28)"/><path class="cls-11" d="M215.07,194h-5v3.3h4.46v2.11H210v3.52h5v2.16h-7.69V191.84h7.69Z" transform="translate(-37.27 -34.28)"/><path class="cls-11" d="M239.05,191.84V205.1h-2.66l-6-9v9h-2.66V191.84h2.66l6,9.17v-9.17Z" transform="translate(-37.27 -34.28)"/><path class="cls-11" d="M257.46,198.46a6.56,6.56,0,0,1-.53,2.69,6.47,6.47,0,0,1-1.45,2.1,6.65,6.65,0,0,1-2.16,1.38,7.36,7.36,0,0,1-5.28,0,6.81,6.81,0,0,1-2.17-1.38,6.49,6.49,0,0,1-1.46-2.1,7.07,7.07,0,0,1,0-5.37,6.49,6.49,0,0,1,1.46-2.1,6.76,6.76,0,0,1,2.17-1.36,7.27,7.27,0,0,1,5.3,0,6.56,6.56,0,0,1,2.15,1.36,6.44,6.44,0,0,1,1.44,2.1A6.61,6.61,0,0,1,257.46,198.46Zm-10.85,0a5,5,0,0,0,.3,1.77,3.7,3.7,0,0,0,.83,1.35,3.79,3.79,0,0,0,1.29.86,4.52,4.52,0,0,0,3.29,0,3.7,3.7,0,0,0,1.29-.86,3.82,3.82,0,0,0,.82-1.35,5,5,0,0,0,.3-1.77,4.92,4.92,0,0,0-.3-1.76,3.58,3.58,0,0,0-2.11-2.19,4.81,4.81,0,0,0-3.29,0,3.77,3.77,0,0,0-1.29.85,3.58,3.58,0,0,0-.83,1.34A4.92,4.92,0,0,0,246.61,198.46Z" transform="translate(-37.27 -34.28)"/><path class="cls-11" d="M261.59,191.84h9.73V194h-3.54V205.1h-2.66V194h-3.53Z" transform="translate(-37.27 -34.28)"/><path class="cls-11" d="M283.47,191.84h8.19V194h-5.53v3.4h4.24v2.11h-4.24v5.6h-2.66Z" transform="translate(-37.27 -34.28)"/><path class="cls-11" d="M309.33,198.46a6.56,6.56,0,0,1-.53,2.69,6.47,6.47,0,0,1-1.45,2.1,6.65,6.65,0,0,1-2.16,1.38,7.36,7.36,0,0,1-5.28,0,6.81,6.81,0,0,1-2.17-1.38,6.49,6.49,0,0,1-1.46-2.1,7.07,7.07,0,0,1,0-5.37,6.49,6.49,0,0,1,1.46-2.1,6.76,6.76,0,0,1,2.17-1.36,7.27,7.27,0,0,1,5.3,0,6.56,6.56,0,0,1,2.15,1.36,6.44,6.44,0,0,1,1.44,2.1A6.61,6.61,0,0,1,309.33,198.46Zm-10.84,0a5,5,0,0,0,.29,1.77,3.72,3.72,0,0,0,.84,1.35,3.66,3.66,0,0,0,1.28.86,4.52,4.52,0,0,0,3.29,0,3.7,3.7,0,0,0,1.29-.86,3.82,3.82,0,0,0,.82-1.35,5,5,0,0,0,.3-1.77,4.92,4.92,0,0,0-.3-1.76,3.58,3.58,0,0,0-2.11-2.19,4.81,4.81,0,0,0-3.29,0,3.7,3.7,0,0,0-2.12,2.19A4.93,4.93,0,0,0,298.49,198.46Z" transform="translate(-37.27 -34.28)"/><path class="cls-11" d="M314.12,191.84h2.66V200a2.78,2.78,0,0,0,.7,2,2.67,2.67,0,0,0,2,.7,2.71,2.71,0,0,0,2-.7,2.78,2.78,0,0,0,.7-2v-8.12h2.68V200a5.5,5.5,0,0,1-.44,2.27,4.4,4.4,0,0,1-1.18,1.61,4.8,4.8,0,0,1-1.73,1,6.5,6.5,0,0,1-2.07.32,6.33,6.33,0,0,1-2.05-.32,4.63,4.63,0,0,1-1.69-1,4.43,4.43,0,0,1-1.14-1.61,5.68,5.68,0,0,1-.42-2.27Z" transform="translate(-37.27 -34.28)"/><path class="cls-11" d="M341.6,191.84V205.1h-2.66l-6-9v9h-2.66V191.84h2.66l6,9.17v-9.17Z" transform="translate(-37.27 -34.28)"/><path class="cls-11" d="M351.7,191.84a8.22,8.22,0,0,1,2.89.48,6.24,6.24,0,0,1,2.21,1.34,5.82,5.82,0,0,1,1.4,2.1,7.7,7.7,0,0,1,0,5.46,6,6,0,0,1-1.4,2.09,6.37,6.37,0,0,1-2.21,1.33,8.47,8.47,0,0,1-2.89.46h-4.63V191.84Zm-.09,11a4,4,0,0,0,4.37-4.35,4.48,4.48,0,0,0-1.13-3.24,4.32,4.32,0,0,0-3.24-1.17h-1.88v8.76Z" transform="translate(-37.27 -34.28)"/><path class="cls-7" d="M240.71,141a9.41,9.41,0,0,1-.75,3.8,9.23,9.23,0,0,1-2.05,3,9.42,9.42,0,0,1-3,1.95,10.4,10.4,0,0,1-7.45,0,9.47,9.47,0,0,1-3.06-1.95,9,9,0,0,1-2.07-3,10,10,0,0,1,0-7.58,8.78,8.78,0,0,1,2.07-3,9.42,9.42,0,0,1,3.06-1.93,10.34,10.34,0,0,1,7.48,0,9.18,9.18,0,0,1,3,1.93,9,9,0,0,1,2,3A9.45,9.45,0,0,1,240.71,141Zm-15.31,0a7.09,7.09,0,0,0,.41,2.5,5.41,5.41,0,0,0,1.18,1.9,5.12,5.12,0,0,0,1.81,1.22,6.5,6.5,0,0,0,4.65,0,5,5,0,0,0,1.81-1.22,5.54,5.54,0,0,0,1.17-1.9,7.62,7.62,0,0,0,0-5,5.49,5.49,0,0,0-1.17-1.89,5,5,0,0,0-1.81-1.2,6.8,6.8,0,0,0-4.65,0,5.21,5.21,0,0,0-1.81,1.2,5.37,5.37,0,0,0-1.18,1.89A7.07,7.07,0,0,0,225.4,141Z" transform="translate(-37.27 -34.28)"/><path class="cls-7" d="M259.18,142.94a7.61,7.61,0,0,1-.6,3.07,7,7,0,0,1-1.65,2.36,7.28,7.28,0,0,1-2.47,1.5,8.61,8.61,0,0,1-3,.52,8.35,8.35,0,0,1-3-.52,6.8,6.8,0,0,1-4-3.86,8.4,8.4,0,0,1,0-6.16,7,7,0,0,1,1.62-2.35,7.2,7.2,0,0,1,2.43-1.5,8.91,8.91,0,0,1,6,0,7.2,7.2,0,0,1,2.43,1.5,7,7,0,0,1,1.62,2.35A7.6,7.6,0,0,1,259.18,142.94Zm-11.47,0a5.09,5.09,0,0,0,.29,1.83,3.78,3.78,0,0,0,.81,1.32,3.16,3.16,0,0,0,1.19.78,4.06,4.06,0,0,0,1.43.25,4.17,4.17,0,0,0,1.45-.25,3.43,3.43,0,0,0,1.24-.78,4.21,4.21,0,0,0,.87-1.32,4.67,4.67,0,0,0,.33-1.83,4.9,4.9,0,0,0-.32-1.85,3.74,3.74,0,0,0-.86-1.3,3.35,3.35,0,0,0-1.22-.78,4,4,0,0,0-1.43-.26,4.13,4.13,0,0,0-1.44.26,3.28,3.28,0,0,0-1.2.78,3.68,3.68,0,0,0-.83,1.3A4.91,4.91,0,0,0,247.71,142.94Z" transform="translate(-37.27 -34.28)"/><path class="cls-7" d="M267,137.81a6,6,0,0,1,4.91-2.33,7,7,0,0,1,2.67.52,6.38,6.38,0,0,1,2.16,1.49,7.09,7.09,0,0,1,1.43,2.33,9.32,9.32,0,0,1,0,6.14,7.39,7.39,0,0,1-1.43,2.37,6.35,6.35,0,0,1-2.16,1.53,6.8,6.8,0,0,1-2.67.53,5.78,5.78,0,0,1-3-.72A6.56,6.56,0,0,1,267,148v9.42h-3.75V135.51H267Zm7.86,5.08a4.35,4.35,0,0,0-.34-1.78,3.81,3.81,0,0,0-.87-1.28,3.71,3.71,0,0,0-1.26-.78,4.14,4.14,0,0,0-2.94,0,3.48,3.48,0,0,0-1.24.8,4.1,4.1,0,0,0-.87,1.32,4.27,4.27,0,0,0-.34,1.77,4.33,4.33,0,0,0,.34,1.77,4,4,0,0,0,.87,1.31,3.51,3.51,0,0,0,1.24.81,4.14,4.14,0,0,0,1.47.26,4,4,0,0,0,1.47-.28,3.64,3.64,0,0,0,1.26-.81,4,4,0,0,0,.87-1.33A4.42,4.42,0,0,0,274.9,142.89Z" transform="translate(-37.27 -34.28)"/><path class="cls-7" d="M294.34,146.07a3.72,3.72,0,0,1-.4,1.72,4,4,0,0,1-1.17,1.37,5.76,5.76,0,0,1-1.84.91,8.59,8.59,0,0,1-2.44.32,8,8,0,0,1-2.56-.38,6.86,6.86,0,0,1-2-1,4.91,4.91,0,0,1-1.36-1.52,4.39,4.39,0,0,1-.55-1.91h3.79a1.93,1.93,0,0,0,.83,1.36,3.07,3.07,0,0,0,1.85.53,2.86,2.86,0,0,0,1.7-.42,1.3,1.3,0,0,0,.58-1.05,1.09,1.09,0,0,0-.62-1,7.44,7.44,0,0,0-1.56-.58l-2-.52a9.87,9.87,0,0,1-2-.73,4.5,4.5,0,0,1-1.56-1.26,3.35,3.35,0,0,1-.62-2.11,3.62,3.62,0,0,1,.41-1.67,3.94,3.94,0,0,1,1.15-1.37,5.62,5.62,0,0,1,1.85-.92,8.2,8.2,0,0,1,2.47-.34,6.39,6.39,0,0,1,4.26,1.32,4.85,4.85,0,0,1,1.72,3.5h-3.6a1.86,1.86,0,0,0-.72-1.33,2.78,2.78,0,0,0-1.77-.51,2.73,2.73,0,0,0-1.58.37,1.17,1.17,0,0,0-.54,1,1.11,1.11,0,0,0,.62,1,7.61,7.61,0,0,0,1.52.61c.61.17,1.27.34,2,.51a9.16,9.16,0,0,1,2,.74,4.78,4.78,0,0,1,1.55,1.27A3.42,3.42,0,0,1,294.34,146.07Z" transform="translate(-37.27 -34.28)"/><path class="cls-7" d="M304,148.19a2.1,2.1,0,0,1-.65,1.57,2.23,2.23,0,0,1-1.63.63,2.33,2.33,0,0,1-1.68-.63,2.07,2.07,0,0,1-.65-1.57,2.1,2.1,0,0,1,.65-1.57,2.37,2.37,0,0,1,1.68-.62,2.27,2.27,0,0,1,1.63.62A2.14,2.14,0,0,1,304,148.19Zm-4.4-17h4.05l-.43,13H300Z" transform="translate(-37.27 -34.28)"/></g></svg>