<svg xmlns="http://www.w3.org/2000/svg" xmlns:xlink="http://www.w3.org/1999/xlink" viewBox="0 0 139.49 37.74"><defs><style>.cls-1{fill:#dbc0dd;}.cls-2{fill:#b5b5db;}.cls-3{fill:url(#linear-gradient);}</style><linearGradient id="linear-gradient" x1="54.29" y1="19.54" x2="75.61" y2="19.54" gradientUnits="userSpaceOnUse"><stop offset="0" stop-color="#dbc0dd"/><stop offset="1" stop-color="#b5b5db"/></linearGradient></defs><g id="Layer_2" data-name="Layer 2"><g id="Layer_1-2" data-name="Layer 1"><path class="cls-1" d="M14.5,16.23H9.84V37.3H3V16.23H0V10.71H3V9.37q0-4.9,2.79-7.2T14.21,0V5.67a5,5,0,0,0-3.41.82,4.07,4.07,0,0,0-1,3.12v1.1H14.5Z"/><path class="cls-1" d="M26.16,36a12.15,12.15,0,0,1-4.82-4.82A14.44,14.44,0,0,1,19.58,24a14.15,14.15,0,0,1,1.8-7.2A12.55,12.55,0,0,1,26.3,12a14.34,14.34,0,0,1,7-1.7,14.34,14.34,0,0,1,7,1.7,12.55,12.55,0,0,1,4.92,4.83,14.15,14.15,0,0,1,1.8,7.2,13.87,13.87,0,0,1-1.84,7.2,12.79,12.79,0,0,1-5,4.82,14.46,14.46,0,0,1-7,1.71A14,14,0,0,1,26.16,36ZM36.5,31a6.41,6.41,0,0,0,2.57-2.66A9,9,0,0,0,40,24a8,8,0,0,0-2-5.83,6.55,6.55,0,0,0-4.87-2,6.41,6.41,0,0,0-4.83,2A8.14,8.14,0,0,0,26.4,24a8.22,8.22,0,0,0,1.9,5.83,6.22,6.22,0,0,0,4.77,2A6.88,6.88,0,0,0,36.5,31Z"/><path class="cls-2" d="M109.82,10.71V37.3h-6.76V33.94a8.93,8.93,0,0,1-3.39,2.72,10.58,10.58,0,0,1-4.54,1,11.2,11.2,0,0,1-5.51-1.32,9.26,9.26,0,0,1-3.77-3.89,12.86,12.86,0,0,1-1.37-6.12V10.71H91.2V25.35a6.89,6.89,0,0,0,1.58,4.87,6.38,6.38,0,0,0,8.69,0,6.85,6.85,0,0,0,1.59-4.87V10.71Z"/><path class="cls-2" d="M123.17,36.56a10.36,10.36,0,0,1-4.11-3.19,8,8,0,0,1-1.65-4.47h6.76a3.7,3.7,0,0,0,1.52,2.55,5.25,5.25,0,0,0,3.28,1,5.12,5.12,0,0,0,3-.77,2.33,2.33,0,0,0,1.08-2,2.07,2.07,0,0,0-1.32-1.94,23.9,23.9,0,0,0-4.2-1.42,36.26,36.26,0,0,1-4.87-1.49,8.39,8.39,0,0,1-3.26-2.35A6.33,6.33,0,0,1,118,18.25a6.86,6.86,0,0,1,1.27-4A8.52,8.52,0,0,1,123,11.34a13.57,13.57,0,0,1,5.59-1.06,11.4,11.4,0,0,1,7.59,2.38,8.85,8.85,0,0,1,3.12,6.4h-6.44a3.46,3.46,0,0,0-1.32-2.52,6,6,0,0,0-6-.26,2.15,2.15,0,0,0-1,1.87,2.2,2.2,0,0,0,1.34,2,20.55,20.55,0,0,0,4.18,1.42,34.34,34.34,0,0,1,4.75,1.49,8.35,8.35,0,0,1,3.24,2.37,6.6,6.6,0,0,1,1.42,4.25,7,7,0,0,1-1.28,4.13,8.32,8.32,0,0,1-3.64,2.86,15.27,15.27,0,0,1-11.4-.15Z"/><path class="cls-3" d="M61,1.78V37.3H54.29V1.78Zm0,17.76L75.61,37.3V1.78Z"/></g></g></svg>